<svg width="1084" height="1344" viewBox="0 0 1084 1344" fill="none" xmlns="http://www.w3.org/2000/svg">
    <path
        d="M42.0225 935C41.9353 937.087 43.1216 937.691 45.0151 938.04C63.97 941.536 80.8636 949.458 95.5098 962.015C104.975 970.13 113.43 979.036 118.058 990.986C121.499 999.871 120.055 1007.73 113.493 1014.47C102.265 1026.01 88.4048 1033.38 73.5102 1038.97C70.0023 1040.28 66.3763 1041.23 62.9997 1042.96C59.2478 1044.88 58.1391 1047.64 59.5276 1051.5C64.5528 1065.47 64.6445 1080 63.9053 1094.49C63.3657 1105.08 61.5439 1115.58 59.52 1126C52.9717 1159.73 41.1682 1191.99 32.0199 1225C27.3666 1241.79 23.4279 1258.69 20.832 1275.97C18.9526 1288.48 18.259 1300.95 18.6189 1313.5C18.8136 1320.28 20.6219 1327.09 25.6266 1331.89C32.7845 1338.75 42.5746 1338.1 49.0225 1331"
        stroke="currentColor" stroke-width="8" stroke-linecap="round" stroke-linejoin="round" />
    <path
        d="M791.023 1038C766.905 1027.84 740.837 1048.57 743.021 1073C743.819 1081.93 753.6 1089.99 762.522 1088.99C770.072 1088.15 777.33 1085.73 785.019 1085.41C798.527 1084.84 811.284 1087.58 823.513 1093.02C843.622 1101.97 858.118 1116.82 867.442 1136.54C874.974 1152.47 877.735 1169.11 872.55 1186.51C867.368 1203.9 855.6 1215.01 838.983 1220.89C823.95 1226.21 809.179 1225.36 794.979 1217.08C781.687 1209.32 772.41 1192.3 776.592 1175.52C777.446 1172.09 777.502 1167.86 782.023 1166.5"
        stroke="currentColor" stroke-width="8" stroke-linecap="round" stroke-linejoin="round" />
    <path
        d="M1078.52 1039C1076.94 1046.19 1078.09 1053.33 1078.75 1060.5C1079.32 1066.66 1079.43 1072.87 1078.48 1078.99C1077.18 1087.3 1071.1 1092.31 1062.53 1093.04C1048.25 1094.25 1035.74 1089.41 1024.04 1081.97C1004.96 1069.85 991.921 1052.48 980.912 1033.06C969.277 1012.55 960.391 990.612 948.029 970.497C945.582 966.514 942.394 963.209 939.064 959.96C935.024 956.018 930.036 954.345 925.102 956.208C919.774 958.219 917.26 963.328 916.536 969.002C914.805 982.578 914.756 996.083 917.941 1009.52C918.585 1012.24 917.923 1015.14 916.024 1017.5"
        stroke="currentColor" stroke-width="8" stroke-linecap="round" stroke-linejoin="round" />
    <path
        d="M680.023 1246.5C682.919 1246.95 684.645 1249.1 686.517 1251.01C698.711 1263.41 719.159 1262.44 731.518 1250.99C745.751 1237.82 749.263 1220.73 747.89 1202.51C746.042 1177.97 737.808 1155.28 723.873 1135.1C712.049 1117.99 696.787 1104.79 675.016 1102.06C658.641 1100.01 643.733 1102.99 632.497 1116.48C632.21 1116.82 631.523 1116.83 631.023 1117"
        stroke="currentColor" stroke-width="8" stroke-linecap="round" stroke-linejoin="round" />
    <path
        d="M519.023 1168C521.26 1169.01 523.507 1169.68 525.989 1170.17C534.455 1171.84 538.092 1178.58 540.494 1186.01C546.13 1203.45 549.946 1221.4 555.056 1238.99C562.147 1263.39 570.518 1287.27 585.003 1308.51C592.666 1319.76 601.216 1330.29 613.593 1336.36C627.707 1343.28 642.661 1339.3 648.47 1325.98C650.763 1320.72 650.117 1315.27 648.023 1310"
        stroke="currentColor" stroke-width="8" stroke-linecap="round" stroke-linejoin="round" />
    <path
        d="M897.023 1106C898.96 1125.09 905.802 1142.14 918.002 1157.02C922.052 1161.96 926.559 1166.04 933.02 1167.52C943.607 1169.93 952.17 1165.53 956.544 1155.51C961.155 1144.95 959.078 1135.02 954.601 1124.97C949.793 1114.17 943.309 1104.37 936.935 1094.56C923.311 1073.58 909.017 1053.04 894.02 1033C893.381 1032.15 892.862 1031 891.996 1030.55C885.864 1027.36 885.308 1020.92 883.036 1015.49C880.384 1009.16 877.487 1002.71 871.927 998.632C863.449 992.415 852.533 995.841 846.997 1005.48C842.17 1013.89 841.93 1022.81 843.533 1032C843.971 1034.51 844.707 1036.98 844.991 1039.5C846.018 1048.66 855.026 1055.77 861.517 1056.56C869.016 1057.47 875.432 1054.19 879.548 1047.01C881.618 1043.41 883.003 1039.57 883.46 1035.49C883.811 1032.37 884.818 1029.71 887.023 1027.5"
        stroke="currentColor" stroke-width="8" stroke-linecap="round" stroke-linejoin="round" />
    <path
        d="M268.023 1258.5C264.244 1257.56 261.67 1260.45 258.53 1261.52C249.344 1264.66 242.503 1260.71 242.467 1251C242.453 1247.22 243.291 1243.65 243.994 1239.99C248.774 1215.18 259.459 1192.65 271.083 1170.53C276.851 1159.56 283.437 1148.97 286.975 1136.99C290.071 1126.5 289.998 1116.35 281.5 1108.02C276.122 1102.75 263.718 1102.15 257.619 1108.1C255.018 1110.63 252.494 1111.88 249.023 1111.5"
        stroke="currentColor" stroke-width="8" stroke-linecap="round" stroke-linejoin="round" />
    <path
        d="M430.024 1133C424.999 1124.42 418.46 1118.4 408.076 1116.25C400.587 1114.7 394.709 1116.81 389.62 1121.11C379.221 1129.9 373.098 1141.8 367.488 1153.98C358.273 1174.01 354.914 1195.36 353.126 1217.01C351.949 1231.26 358.726 1242.36 371.057 1246.91C382.748 1251.23 393.743 1248.08 404.009 1241.97C420.992 1231.87 430.844 1216.27 434.22 1197.45C437.14 1181.17 437.04 1164.45 429.005 1149.01C424.985 1141.29 418.819 1138.12 412.024 1140"
        stroke="currentColor" stroke-width="8" stroke-linecap="round" stroke-linejoin="round" />
    <path
        d="M73.0227 959C73.0407 968.261 67.2118 975.289 63.3749 982.926C52.6326 1004.31 41.1916 1025.33 30.0219 1046.5C22.1926 1061.34 14.3251 1076.15 6.54603 1091.01C4.76154 1094.42 3.13191 1097.96 4.52271 1102"
        stroke="currentColor" stroke-width="8" stroke-linecap="round" stroke-linejoin="round" />
    <path
        d="M267.023 1026C259.187 1023.9 251.519 1025.78 244.045 1027.59C215.023 1034.63 189.026 1047.58 166.454 1067.42C155.237 1077.28 145.232 1088.05 137.013 1100.49C136.427 1101.38 135.855 1102.44 134.998 1102.96C124.491 1109.38 123.291 1121.06 119.023 1131"
        stroke="currentColor" stroke-width="8" stroke-linecap="round" stroke-linejoin="round" />
    <path
        d="M714.023 1249.5C709.363 1246.83 707.676 1242.11 706.058 1237.49C693.016 1200.26 678.419 1163.66 661.514 1128C660.166 1125.16 658.882 1122.17 655.023 1122"
        stroke="currentColor" stroke-width="7" stroke-linecap="round" stroke-linejoin="round" />
    <path
        d="M475.523 1174C475.7 1165.17 477.388 1156.37 476.068 1147.49C475.724 1145.18 475.335 1142.86 473.974 1141.04C470.922 1136.94 465.969 1136.36 462.083 1140.06C456.119 1145.74 453.118 1153.23 451.091 1161.02C449.378 1167.6 449.31 1174.34 451.037 1181C452.21 1185.52 454.735 1189.35 459.54 1189.84C464.004 1190.29 467.31 1187.59 469.589 1183.54C471.348 1180.41 472.872 1177.07 475.523 1174.5"
        stroke="currentColor" stroke-width="8" stroke-linecap="round" stroke-linejoin="round" />
    <path
        d="M746.524 1137C753.077 1128.41 755.795 1118.73 754.489 1108C754.1 1104.81 752.558 1102.05 750.013 1100.01C745.735 1096.59 738.672 1099.52 737.137 1106.03C734.45 1117.42 735.952 1128.17 744.574 1136.95C745.917 1138.32 746.358 1139.9 747.033 1141.5C750.806 1150.42 763.117 1154.84 769.969 1149.43C774.872 1145.56 777.443 1140.04 779.087 1134.02C779.958 1130.83 779.53 1126.67 784.024 1125.5"
        stroke="currentColor" stroke-width="7" stroke-linecap="round" stroke-linejoin="round" />
    <path
        d="M137.023 1019C138.75 1026.97 138.611 1034.87 137.749 1043.02C136.882 1051.22 136.066 1059.38 134.592 1067.51C132.943 1076.6 130.875 1085.59 128.461 1094.48C127.331 1098.65 127.195 1102.57 129.023 1106.5"
        stroke="currentColor" stroke-width="8" stroke-linecap="round" stroke-linejoin="round" />
    <path
        d="M503.023 1118C505.116 1120.55 504.464 1123.89 504.317 1126.49C503.368 1143.26 505.699 1159.84 506.462 1176.5C506.599 1179.49 507.238 1182.62 505.576 1185.53C505.217 1186.16 505.251 1187.29 505.566 1187.98C508.371 1194.11 507.409 1200.62 507.502 1207C507.734 1222.83 507.812 1238.67 508.064 1254.5C508.11 1257.34 508.69 1260.17 509.023 1263"
        stroke="currentColor" stroke-width="9" stroke-linecap="round" stroke-linejoin="round" />
    <path
        d="M575.023 1102.5C567.435 1102.09 562.662 1107.42 557.591 1111.58C541.194 1125.05 529.505 1142.24 520.126 1161.05C518.655 1164 517.95 1167.52 518.023 1171"
        stroke="currentColor" stroke-width="6" stroke-linecap="round" stroke-linejoin="round" />
    <path
        d="M172.023 1095.5C179.736 1097.48 187.267 1098.94 195.114 1095.19C198.121 1093.75 200.018 1091.75 202.023 1089.5C202.056 1082.74 195.963 1080.17 189.522 1080.04C181.311 1079.88 173.516 1086 171.59 1094.02C171.249 1095.43 170.195 1096 169.527 1097C159.301 1112.3 169.012 1127.78 185.015 1129.57C193.852 1130.56 201.696 1127.83 209.524 1124.5C211.6 1123.62 213.662 1122.66 216.023 1123"
        stroke="currentColor" stroke-width="7" stroke-linecap="round" stroke-linejoin="round" />
    <path
        d="M98.5234 1049C98.1062 1054.06 94.53 1057.68 92.4489 1061.96C89.3274 1068.39 86.6557 1074.93 85.5815 1082.01C85.2288 1084.33 85.4969 1086.72 86.4933 1089.01C89.1617 1095.15 94.2106 1096.83 99.4834 1092.95C101.513 1091.45 103.152 1089.47 106.023 1090"
        stroke="currentColor" stroke-width="8" stroke-linecap="round" stroke-linejoin="round" />
    <path
        d="M884.023 966C883.323 970.402 885.524 974.029 887.59 977.46C894.582 989.065 901.838 1000.51 909.049 1011.98C909.858 1013.27 910.796 1014.87 912.063 1015.41C917.315 1017.61 918.481 1022.67 920.45 1027.03C923.408 1033.59 927.064 1039.73 930.513 1046.01C932.221 1049.11 933.178 1052.4 932.523 1056"
        stroke="currentColor" stroke-width="7" stroke-linecap="round" stroke-linejoin="round" />
    <path
        d="M802.523 1036.5C808.18 1042.17 811.137 1049.5 814.446 1056.54C817.168 1062.33 820.505 1067.51 825.533 1071.49C833.63 1077.89 843.61 1071.22 844.507 1063.5C844.777 1061.18 845.006 1058.83 844.985 1056.5C844.96 1053.66 845.51 1051.11 847.523 1049"
        stroke="currentColor" stroke-width="7" stroke-linecap="round" stroke-linejoin="round" />
    <path
        d="M233.023 1086C241.487 1082.87 246.488 1083.89 250.534 1089.49C252.47 1092.17 252.883 1094.73 251.645 1098.05C250.1 1102.18 247.442 1106.15 248.434 1111.02C248.577 1111.72 247.568 1112.7 247.017 1113.5C239.439 1124.47 234.067 1136.71 227.125 1148.06C225.756 1150.3 225.69 1153.33 225.023 1156"
        stroke="currentColor" stroke-width="7" stroke-linecap="round" stroke-linejoin="round" />
    <path
        d="M504.523 1188C501.948 1187.82 500.116 1189.91 497.529 1190.08C489.028 1190.63 482.889 1187.6 479.463 1179.53C478.891 1178.18 477.523 1177.17 476.523 1176"
        stroke="currentColor" stroke-width="8" stroke-linecap="round" stroke-linejoin="round" />
    <g clip-path="url(#clip0_1075_2020)">
        <path
            d="M1055 625.531C1052.3 640.026 1050.33 654.187 1046.42 667.98C1031.58 720.32 1005.17 765.983 967.618 805.264C921.09 853.931 864.596 887.113 802.347 911.193C752.446 930.496 700.827 943.192 647.834 950.463C610.136 955.635 572.272 958.062 534.249 957.046C438.07 954.476 346.023 934.336 259.953 890.397C193.488 856.467 135.604 811.671 90.4434 751.65C61.8722 713.678 42.227 671.587 34.24 624.442C33.1301 617.89 32.2616 611.297 31.1406 604.362C31 581.312 31 558.625 31 535.469C33.3052 523.093 34.2797 510.993 36.4823 499.054C46.089 446.983 64.1594 398.052 90.1265 351.966C132.804 276.221 193.276 218.001 266.994 173.021C330.361 134.357 397.89 105.1 469.613 85.8396C502.779 76.9334 536.535 71.5145 570.921 69.4935C653.609 64.6336 729.211 85.8568 798.603 130.252C862.508 171.136 912.659 225.41 952.473 289.636C985.512 342.931 1009.57 400.211 1028.21 459.887C1037.99 491.181 1046.35 522.857 1052.73 555.033C1053.48 558.775 1054.04 562.553 1054.84 566.657C1055 586.354 1055 605.708 1055 625.531ZM264.341 867.203C263.397 866.521 262.454 865.839 261.51 865.157C256.591 861.6 252.21 857.425 245.729 856.21C241.593 855.435 238.297 852.331 236.732 847.675C241.085 846.233 244.589 847.43 246.795 850.089C249.7 853.592 253.521 855.33 257.207 857.479C299.152 881.939 343.577 900.628 390.116 914.311C441.172 929.323 493.358 937.421 546.547 938.611C595.657 939.711 644.297 934.928 692.511 925.661C751.922 914.242 809.033 896.257 861.784 865.974C911.757 837.287 953.448 799.768 984.37 750.768C1008.86 711.962 1022.93 669.72 1025.52 623.924C1027.19 594.595 1025.06 565.359 1020.36 536.352C1013.11 491.648 1001.28 448.211 984.133 406.257C950.314 323.527 901.083 251.498 834.676 191.475C801.859 161.812 765.43 137.887 723.4 123.169C671.215 104.895 617.3 98.7893 562.288 100.006C533.253 100.648 504.514 103.712 476.018 109.192C375.928 128.442 288.627 172.93 214.387 242.693C168.79 285.542 131.836 335.012 104.181 391.229C73.5623 453.474 55.678 518.6 60.2763 588.718C61.6973 610.386 65.3549 631.63 71.7567 652.377C85.391 696.563 107.786 735.324 142.582 766.377C143.509 767.204 144.818 767.958 144.308 769.616C141.323 769.203 141.325 769.201 138.765 767.218C113.985 748.021 94.7217 724.197 80.2028 696.553C62.1466 662.173 52.4361 625.42 49.5387 586.74C47.363 557.695 48.6297 528.867 54.2014 500.284C63.3482 453.36 81.5877 409.922 105.337 368.666C130.124 325.608 160.202 286.385 192.532 248.8C197.794 242.683 203.547 236.955 208.254 230.177C206.92 229.774 206.446 230.57 205.847 231.056C177.355 254.176 152.311 280.624 130.577 310.131C80.0768 378.691 49.5334 454.971 42.094 540.158C39.9704 564.474 40.2528 588.727 43.5308 612.859C48.9682 652.889 62.9752 689.846 84.7549 723.872C111.24 765.25 145.375 799.406 184.455 828.739C259.708 885.22 343.743 921.714 436.353 938.411C442.87 939.586 449.432 940.513 455.973 941.555C430.27 935.195 404.58 929.023 379.294 921.302C338.611 908.877 299.739 892.56 264.341 867.203ZM892.922 227.56C764.166 71.3155 569.268 51.5023 434.919 109.343C441.468 107.596 448.017 105.846 454.566 104.1C493.524 93.7181 533.226 88.5781 573.476 88.0452C607.692 87.5923 641.613 90.977 675.169 97.8146C712.013 105.322 747.152 117.325 779.037 137.671C837.567 175.021 885.451 223.532 926.022 279.445C958.997 324.888 984.598 374.326 1003.61 427.165C1018.31 468.03 1028.47 509.997 1033.12 553.176C1036.09 580.7 1036.33 608.304 1033.46 635.932C1030.76 661.897 1025.24 687.137 1015.96 711.532C1010.1 726.915 1002.69 741.543 993.462 756.088C994.4 755.442 994.716 755.319 994.893 755.089C997.229 752.055 999.624 749.063 1001.85 745.952C1030.58 705.889 1042.76 660.453 1044.55 611.894C1045.81 577.426 1040.94 543.517 1032.99 510.032C1022.23 464.68 1006.89 420.9 987.317 378.619C962.281 324.542 931.333 274.129 892.922 227.56Z"
            fill="currentColor" />
        <path
            d="M339.73 190.802C280.191 220.083 227.115 257.616 182.548 306.502C135.741 357.845 102.961 416.723 88.629 485.217C82.3213 515.363 79.8223 545.882 81.4969 576.57C84.8884 638.722 103.089 695.856 141.09 745.912C144.977 751.033 149.136 755.947 153.429 761.281C150.018 762.647 148.846 760.29 147.424 759.042C114.589 730.216 93.0008 694.211 79.9749 652.815C69.7145 620.207 66.1619 586.69 67.9078 552.694C70.4444 503.3 82.699 456.156 102.429 410.889C128.117 351.951 165.021 301.058 212.645 257.962C243.067 230.432 277.158 208.025 312.649 187.668C356.277 162.643 401.634 141.454 449.749 126.493C484.343 115.736 519.607 108.483 555.793 105.506C608.922 101.136 660.835 106.543 711.391 123.612C751.851 137.272 787.852 158.783 820.172 186.55C882.789 240.347 931.023 305.134 966.732 379.356C991.941 431.755 1009.18 486.736 1018.02 544.22C1022.16 571.089 1023.91 598.162 1021.19 625.355C1016.46 672.725 999.258 715.363 971.967 754.068C934.196 807.637 883.617 845.491 824.806 873.052C773.151 897.261 718.597 911.824 662.56 921.399C618.268 928.966 573.667 932.489 528.752 931.236C453.82 929.145 381.688 914.792 314.113 881.115C297.541 872.856 281.596 863.494 266.332 853C264.776 851.93 262.716 851.203 262.333 848.6C265.338 847.596 267.433 849.657 269.632 850.709C293.979 862.365 318.541 873.534 343.569 883.659C374.058 895.993 405.286 905.838 437.903 910.968C434.755 910.167 431.603 909.379 428.458 908.562C425.076 907.682 421.68 906.847 418.325 905.87C335.914 881.866 262.849 840.754 197.759 785.13C173.394 764.308 150.274 742.246 130.901 716.525C108.347 686.58 95.2981 652.815 89.5438 615.937C86.3213 595.283 84.9338 574.551 85.8955 553.715C88.0851 506.272 99.6454 461.044 119.054 417.787C142.174 366.258 174.284 320.934 214.371 281.278C232.581 263.263 252.51 247.408 276.129 236.83C307.174 222.925 338.256 220.992 368.848 237.849C389.867 249.43 404.586 266.148 407.743 290.918C409.865 307.562 404.919 322.561 395.633 336.207C379.747 359.555 351.313 371.218 325.151 365.296C304.207 360.555 284.134 339.925 286.661 313.381C288.55 293.529 308.734 276.574 328.588 278.689C333.927 279.258 338.481 281.653 342.098 285.572C346.321 290.147 347.201 295.281 344.841 299.758C342.484 304.23 336.948 306.87 331.172 306.074C327.21 305.529 323.174 304.859 319.682 302.872C314.824 300.108 311.116 301.829 307.567 305.165C296.746 315.335 298.232 335.757 310.603 345.008C321.189 352.924 333.22 353.342 345.461 350.644C376.273 343.853 398.777 310.104 392.638 279.935C389.006 262.089 377.032 251.303 360.915 244.737C339.084 235.844 316.945 237.003 294.916 244.087C269.694 252.198 248.075 266.555 228.747 284.243C165.707 341.936 124.833 412.744 104.899 495.729C97.2249 527.679 94.2833 560.139 96.5054 592.881C99.964 643.843 119.259 688.354 153.2 726.458C200.068 779.075 255.504 820.67 317.578 853.661C335.83 863.361 354.501 872.149 373.955 879.403C361.89 870.233 350.345 860.522 339.954 849.498C329.395 838.294 320.205 826.062 312.269 812.884C304.332 799.705 297.942 785.805 293.101 771.202C288.266 756.619 285.135 741.683 283.656 726.378C282.176 711.062 282.527 695.826 284.407 680.55C286.287 665.281 289.772 650.436 294.753 635.915C299.742 621.372 306.555 607.681 314.409 594.785C313.703 592.547 311.942 592.118 310.537 591.348C294.466 582.538 278.383 573.75 262.274 565.011C260.384 563.986 258.379 563.05 256.314 562.498C253.132 561.648 250.723 562.457 248.833 565.677C242.724 576.088 231 581.059 218.859 578.852C211.088 577.439 203.866 574.55 196.749 571.204C193.195 569.532 192.598 567.903 194.591 564.386C207.622 541.387 224.19 521.281 244.014 503.889C289.458 464.021 343.103 442.288 402.197 432.601C430.556 427.952 459.101 426.154 487.782 426.883C511.91 427.497 535.99 429.138 559.903 432.63C564.665 433.325 568.977 435.097 571.734 439.284C574.24 443.089 572.865 446.137 568.319 446.482C558.358 447.239 548.379 447.791 538.398 448.193C535.183 448.322 533.739 449.344 533.152 452.691C530.32 468.818 528.666 484.973 530.115 501.373C530.423 504.858 531.388 506.015 535.025 505.334C565.429 499.645 595.87 494.151 626.279 488.491C641.1 485.733 649.793 475.146 650.804 459.953C651.654 447.192 646.855 436.875 638.364 427.921C629.485 418.557 618.491 412.266 606.811 407.207C600.584 404.51 596.176 400.723 596.296 393.593C596.428 385.774 599.464 379.293 606.741 375.53C614.456 371.54 622.555 372.334 630.673 373.986C632.931 374.446 635.186 374.917 638.053 375.51C637.128 372.071 635.039 369.929 633.006 367.968C627.614 362.766 622.054 357.732 616.465 352.739C610.529 347.438 605.802 341.289 602.764 333.909C595.779 316.939 605.458 301.853 623.782 301.771C644.833 301.677 661.933 310.951 676.611 325.378C678.026 326.769 679.119 328.504 681.463 329.62C682.208 323.605 680.209 318.103 679.346 312.558C676.788 296.133 673.613 279.804 671.133 263.369C669.965 255.633 670.082 247.742 672.031 240.038C676.654 221.768 693.021 212.502 712.324 217.162C731.722 221.845 743.022 234.87 749.212 253.073C753.266 264.993 754.451 277.414 755.306 289.88C755.427 291.634 754.78 293.582 756.281 295.019C757.712 295.492 758.538 294.52 759.495 293.92C779.99 281.068 807.53 292.507 811.821 316.161C814.674 331.891 808.625 345.234 798.118 356.785C796.003 359.109 793.257 360.849 791.706 363.542C791.687 364.905 792.578 365.393 793.439 365.919C812.357 377.485 815.736 403.692 800.661 420.31C789.097 433.059 773.889 439.294 758.159 444.492C714.175 459.027 673.123 479.29 635.628 506.579C630.598 510.24 625.33 513.677 620.481 518.444C624.832 520.493 628.769 520.012 632.466 520.238C644.591 520.978 656.7 522.357 668.885 521.825C672.95 521.647 676.831 520.796 680.282 518.586C685.429 515.29 687.476 510.47 686.824 504.467C686.514 501.617 685.237 499.293 682.373 498.411C679.677 497.581 677.445 498.777 675.74 500.834C673.863 503.099 672.347 505.494 674.634 508.438C675.009 508.921 675.113 509.615 675.369 510.28C671.028 510.398 668.117 507.021 667.959 501.943C667.789 496.44 671.091 490.747 675.568 488.826C680.109 486.877 685.347 488.276 689.604 492.575C696.939 499.981 697.003 511.11 689.635 519.146C682.112 527.352 672.187 529.904 661.613 530.163C654.81 530.329 647.981 529.664 641.171 529.246C610.652 527.372 582.65 535.418 557.177 551.762C517.199 577.412 489.922 612.958 476.999 658.89C471.511 678.396 470.228 698.215 476.684 717.911C485.038 743.396 506.794 760.508 533.561 761.744C578.326 763.811 613.325 745.272 639.067 709.295C649.313 694.975 654.392 678.644 650.273 660.619C645.121 638.075 622.413 619.474 599.039 618.245C581.586 617.327 566.384 621.97 554.517 635.275C542.747 648.47 542.586 666.374 553.893 679.917C560.75 688.129 571.763 691.187 580.368 687.268C590.751 682.54 596.823 672.003 595.164 661.562C594.087 661.096 593.71 662.08 593.182 662.603C587.701 668.026 582.314 668.77 577.853 664.682C572.835 660.085 572.272 651.746 576.626 646.525C583.299 638.523 596.603 639.174 603.862 647.858C611.659 657.186 611.229 672.709 602.918 681.954C587.558 699.038 554.287 699.941 538.143 683.486C531.065 676.272 528.175 667.564 530.517 657.372C532.159 650.221 535.37 643.916 540.041 638.352C553.405 622.434 571.23 614.89 591.187 611.745C608.892 608.956 625.853 611.685 641.236 621.047C672.644 640.16 688.2 682.665 656.521 718.862C631.077 747.935 599.697 768.771 561.967 778.478C532.647 786.022 505.25 781.561 482.269 760.426C464.801 744.361 455.254 723.832 451.75 700.599C446.244 664.092 458.188 632.263 479.329 603.299C501.692 572.661 531.601 550.764 563.999 532.017C582.596 521.255 601.548 511.11 620.335 500.677C620.703 500.473 621.005 500.149 622.371 499.048C582.372 511.468 542.13 515.876 502.269 522.285C467.654 527.85 433.615 535.372 401.649 550.472C351.126 574.338 320.937 614.383 309.603 668.384C296.975 728.551 308.803 784.265 344.501 834.396C371.959 872.957 409.978 895.113 456.272 903.651C478.251 907.706 500.424 909.861 522.727 910.782C539.7 911.484 556.687 912.679 573.655 912.494C638.747 911.788 702.831 904.243 764.72 882.732C826.366 861.306 880.646 828.269 925.568 780.578C950.227 754.399 970.028 724.934 984.025 691.633C978.596 700.336 971.899 707.995 964.204 714.64C944.13 731.975 921.182 740.426 894.881 732.983C873.95 727.058 859.424 713.416 854.344 691.528C849.114 668.991 865.063 643.358 887.479 638.385C901.251 635.33 912.804 640.373 922.095 650.467C930.859 659.99 934.789 671.159 931.076 684.066C928.522 692.942 921.215 699.189 913.915 699.338C907.889 699.46 904.025 695.976 903.341 689.707C902.807 684.814 905.291 679.783 911.51 679.424C917.24 679.094 921.086 674.13 922.449 667.34C923.811 660.558 921.264 653.957 915.441 650.433C904.911 644.062 894.506 646.006 884.839 652.208C874.301 658.969 869.433 669.392 868.318 681.611C867.677 688.627 868.184 695.586 870.588 702.312C875.897 717.168 889.233 726.882 905.032 727.805C929.627 729.241 947.501 717.361 961.734 698.919C978.911 676.663 988.136 650.943 992.65 623.438C999.681 580.607 994.652 538.473 984.3 496.827C957.627 389.521 904.153 297.805 823.233 222.327C772.832 175.316 713.573 146.392 645.267 136.151C611.833 131.138 578.347 130.266 544.666 133.047C472.708 138.99 404.883 159.43 339.73 190.802ZM751.889 325.381C753.619 323.509 754.395 320.775 757.034 319.323C758.323 321.066 758.008 322.675 757.761 324.299C756.958 329.59 754.455 334.017 750.941 337.952C745.588 343.945 739.209 348.801 733.19 354.06C727.085 359.395 721.75 365.301 720.357 373.721C718.477 385.086 715.602 396.178 711.428 406.924C710.065 410.434 708.741 413.96 706.931 418.707C724.46 412.157 740.913 406.009 757.366 399.862C757.601 400.324 757.837 400.786 758.072 401.248C755.509 406.654 750.871 410.019 745.741 412.808C739.713 416.086 733.146 418.046 726.687 420.25C705.682 427.416 689.977 440.796 679.646 460.436C678.562 462.497 677.118 464.553 677.333 467.477C679.502 466.687 681.233 466.11 682.924 465.432C704.569 456.757 726.22 448.095 747.847 439.373C760.857 434.126 773.632 428.413 784.457 419.205C791.709 413.037 797.293 405.705 799.851 396.357C802.912 385.173 796.577 376.646 784.992 376.319C777.606 376.111 771.549 379.581 765.502 383.191C763.929 384.13 762.58 386.148 760.238 384.995C759.879 383.256 761.228 382.576 762.161 381.726C770.446 374.173 777.631 365.634 784.388 356.734C791.182 347.785 796.936 338.294 799.252 327.056C803.001 308.862 790.602 295.405 772.712 298.559C764.672 299.976 757.57 303.518 751.61 309.228C750.258 310.523 749.249 312.406 747.306 312.689C746.229 311.901 746.198 311.051 746.219 310.225C746.731 290.328 743.268 271.139 735.802 252.702C732.372 244.233 727.515 236.721 719.9 231.344C703.007 219.418 684.488 226.475 680.047 246.596C678.293 254.54 678.878 262.53 680.94 270.324C686.713 292.147 690.583 314.205 689.232 336.878C688.878 342.824 688.986 348.957 686.69 354.962C683.991 353.725 682.93 351.773 681.661 350.083C675.559 341.958 669.908 333.455 663.336 325.733C655.22 316.195 645.124 309.476 631.989 309.438C622.803 309.412 615.631 315.025 612.869 323.589C610.281 331.612 612.292 337.065 620.109 343.422C635.783 356.17 647.69 371.794 655.718 390.34C656.384 391.879 657.878 393.448 656.366 395.51C653.46 395.195 651.107 393.567 648.626 392.255C642.451 388.991 636.891 384.6 630.188 382.3C625.37 380.647 620.56 379.827 615.514 381.336C610.047 382.97 606.486 387.205 606.384 392.507C606.277 398.02 608.801 400.935 615.337 402.635C624.903 405.122 633.286 409.784 640.382 416.594C653.904 429.571 661.327 445.167 660.432 464.277C660.303 467.022 659.36 470.259 663.554 473.033C661.955 463.409 668.263 458.195 672.663 452.155C676.844 446.417 677.671 440.334 675.947 433.702C672.971 422.252 664.318 415.4 655.559 408.633C654.327 407.681 652.414 407.327 652.188 404.353C666.312 407.922 676.725 415.912 684.827 428.054C693.164 417.82 699.248 407.275 700.462 394.907C701.69 382.388 698.19 371.396 685.84 365.155C685.251 364.857 684.702 364.431 684.925 363.113C694.062 363.201 701.298 367.941 708.912 373.723C716.508 347.236 723.066 321.872 700.068 299.259C705.738 298.698 709.676 301.406 714.537 302.19C714.86 291.423 712.154 281.087 713.41 270.679C725.401 295.558 729.003 321.588 724.151 348.973C731.602 346.718 742.726 337.155 751.889 325.381ZM408.3 498.079C405.001 489.185 401.363 480.398 398.479 471.371C393.816 456.782 398.351 449.708 413.239 446.656C423.825 444.486 434.352 442.006 444.846 439.428C453.685 437.257 458.826 439.703 461.196 448.441C463.848 458.221 465.92 468.157 468.258 478.023C468.722 479.977 468.804 482.125 471.535 484.557C471.691 468.452 463.329 453.374 472.763 437.812C425.107 435.049 380.551 443.139 337.689 460.755C284.245 482.722 239.544 516.205 203.94 563.267C212.786 565.213 220.534 566.923 228.285 568.62C230.792 569.17 231.759 567.682 232.668 565.632C236.722 556.493 244.125 552.57 253.824 552.724C261.895 552.852 269.029 556.192 275.905 559.991C289.158 567.311 302.325 574.785 315.511 582.224C323.471 586.715 325.318 591.484 322.282 600.097C320.831 604.215 319.069 608.223 317.447 612.28C317.64 612.364 317.833 612.448 318.025 612.532C323.722 603.654 329.419 594.776 335.066 585.975C333.556 584.395 331.809 584.245 330.252 583.752C305.95 576.065 284.101 564.036 264.905 547.2C257.4 540.618 256.948 536.481 263.534 529.201C272.604 519.174 282.407 509.92 293.053 501.574C299.788 496.294 304.145 495.992 311.169 501.018C331.725 515.728 348.946 533.672 362.171 555.247C364.668 559.321 366.762 559.915 370.222 557.012C371.334 556.08 372.934 555.642 373.316 553.975C372.955 552.294 371.52 551.615 370.354 550.737C359.398 542.483 349.465 533.157 340.688 522.605C333.966 514.522 327.578 506.191 322.687 496.85C318.946 489.708 319.985 484.214 326.1 480.878C341.175 472.654 356.822 465.626 372.971 459.756C378.223 457.846 382.437 459.616 385.759 463.834C386.992 465.399 388.096 467.079 389.137 468.781C400.488 487.345 409.305 507.042 415.596 527.88C416.148 529.706 416.122 531.925 418.272 533.281C421.911 532.552 423.067 530.84 421.288 527.036C416.914 517.688 412.804 508.216 408.3 498.079ZM979.327 443.359C980.153 445.888 981.003 448.41 981.801 450.948C998.148 502.979 1009.62 555.766 1006.28 610.802C1004.91 633.376 1000.68 655.34 991.605 676.195C989.467 681.108 987.218 685.653 987.225 691.517C987.241 704.44 982.639 716.515 978.038 728.498C985.359 719.363 991.031 709.274 995.749 698.633C1014.03 657.405 1017.18 614.177 1012.38 569.994C1009.45 542.975 1003.6 516.491 996.49 490.294C975.438 412.682 943.159 340.402 893.824 276.393C856.04 227.37 811.021 186.658 755.949 157.596C707.402 131.977 655.824 116.956 601.063 113.558C574.749 111.926 548.466 113.487 522.495 118.522C504.915 121.93 487.694 126.612 471.095 133.451C500.623 127.405 530.356 122.799 560.441 121.088C589.735 119.421 618.965 120.143 648.092 124.462C696.277 131.608 740.848 147.82 781.062 175.646C828.572 208.521 868.209 249.322 902.292 295.695C935.386 340.722 960.523 389.961 979.327 443.359ZM380.731 473.738C378.491 469.542 374.775 469.546 371.248 471.124C358.651 476.76 346.155 482.626 333.691 488.552C330.299 490.165 329.72 492.492 332.442 495.661C344.367 509.545 356.189 523.519 367.954 537.539C371.192 541.398 374.785 542.4 379.405 540.282C386.662 536.954 393.909 533.58 401.317 530.617C405.425 528.974 405.981 527.041 404.149 523.096C396.582 506.801 389.24 490.402 380.731 473.738ZM451.421 516.769C453.044 516.422 454.671 516.096 456.288 515.724C462.551 514.282 463.576 512.669 462.37 506.229C461.79 503.132 461.234 500.03 460.654 496.933C458.058 483.074 455.425 469.222 452.883 455.353C452.288 452.108 450.815 450.06 447.26 450.454C434.366 451.881 421.619 454.039 409.275 458.199C405.995 459.304 404.694 460.992 406.113 464.545C413.017 481.823 419.808 499.147 426.606 516.467C428.084 520.232 430.722 521.343 434.548 520.448C439.882 519.201 445.248 518.093 451.421 516.769ZM309.676 511.796C304.11 507.433 303.19 507.364 298.165 511.77C289.529 519.342 280.938 526.966 272.399 534.647C268.304 538.331 268.356 539.917 272.853 542.56C290.074 552.682 307.412 562.605 324.59 572.799C328.314 575.009 330.948 574.335 333.89 571.593C338.393 567.395 343.152 563.471 347.779 559.405C352.622 555.148 352.614 555.049 348.19 550.591C335.523 537.826 322.857 525.061 309.676 511.796ZM506.699 507.43C510.845 506.048 512.081 503.01 511.951 498.878C511.467 483.58 511.033 468.279 510.772 452.976C510.705 449.043 508.739 447.52 505.269 447.48C497.78 447.393 490.288 447.393 482.8 447.507C478.601 447.571 477.002 449.758 477.527 454.036C478.337 460.626 478.724 467.267 479.335 473.882C480.282 484.134 481.133 494.399 482.292 504.628C482.859 509.641 485.265 511.154 490.206 510.327C495.448 509.449 500.682 508.525 506.699 507.43ZM467.637 725.834C469.045 728.44 469.869 731.413 472.359 733.412C464.292 719.021 464.458 702.738 461.152 686.557C460.519 700.321 461.893 713.052 467.637 725.834ZM324.767 293.877C328.517 296.676 331.939 296.496 335.207 292.841C333.559 289.733 331.313 287.766 327.917 287.406C326.061 287.209 324.069 287.393 322.959 288.998C321.785 290.694 323.341 292.039 324.767 293.877ZM522.935 449.095C524.463 446.779 526.424 444.257 524.788 441.546C523.589 439.558 521.121 439.852 518.776 441.009C519.514 444.015 518.694 447.55 522.935 449.095ZM304.602 644.733C304.505 644.468 304.408 644.203 304.311 643.938C304.189 644.046 304.004 644.13 303.955 644.265C299.983 655.139 297.107 666.263 296.232 677.842C298.292 666.805 300.808 655.887 304.602 644.733Z"
            fill="currentColor" />
        <path
            d="M507.075 895.202C486.489 890.34 467.032 883.716 448.775 873.671C414.941 855.055 393.455 826.441 380.56 790.655C370.899 763.847 366.042 736.165 367.907 707.787C372.773 633.724 406.737 578.145 474.245 544.919C493.866 535.262 514.898 530.231 536.873 529.647C537.704 529.625 538.54 529.597 539.366 529.665C539.618 529.686 539.844 530.02 540.77 530.762C537.927 531.699 535.526 532.525 533.104 533.285C507.515 541.313 483.016 551.674 461.675 568.259C419.148 601.311 393.746 644.326 387.178 698.057C382.787 733.973 388.11 768.426 403.526 801.173C421.35 839.034 450.989 863.016 490.903 874.777C519.262 883.133 548.245 886.224 577.728 885.859C622.755 885.302 666.267 876.224 709.074 863.021C718.284 860.18 727.814 857.995 735.408 851.468C741.701 846.06 745.263 839.373 744.638 830.875C744.137 824.065 739.594 818.621 733.039 816.779C724.65 814.423 717.418 820.528 718.34 829.188C718.709 832.656 720.425 835.322 723.771 836.27C727.317 837.274 730.556 836.445 732.807 833.235C732.063 832.124 731.163 832.404 730.385 832.302C727.62 831.942 724.595 831.223 724.551 828.007C724.5 824.349 727.684 823.172 730.806 822.779C738.573 821.801 743.889 828.539 741.288 835.935C738.339 844.318 728.369 847.915 720.192 843.546C712.265 839.312 707.726 829.262 710.032 821.051C712.404 812.608 722.284 806.088 732.26 806.385C746.713 806.814 758.624 821.482 756.855 836.564C755.123 851.326 746.779 861.472 733.953 867.781C704.626 882.207 673.6 891.527 641.47 897.306C620.597 901.06 599.52 902.813 578.363 902.749C554.526 902.676 530.838 900.388 507.075 895.202Z"
            fill="currentColor" />
        <path
            d="M248.571 844.554C242.65 842.498 237.106 840.569 231.012 838.448C237.138 835.047 250.887 836.972 254.916 841.22C255.918 842.277 256.421 843.384 255.649 844.778C254.845 846.228 253.633 846.285 252.24 845.787C251.15 845.398 250.045 845.047 248.571 844.554Z"
            fill="currentColor" />
    </g>
    <defs>
        <clipPath id="clip0_1075_2020">
            <rect width="1024" height="1024" fill="white" transform="translate(30)" />
        </clipPath>
    </defs>
</svg>